<mxfile host="app.diagrams.net" modified="2023-04-05T14:19:49.751Z" agent="Mozilla/5.0 (Macintosh; Intel Mac OS X 10_15_7) AppleWebKit/537.36 (KHTML, like Gecko) Chrome/111.0.0.0 Safari/537.36" etag="7sPcteuVWFhwtN1iP-19" version="21.1.4" type="device">
  <diagram name="第 1 页" id="8uL3SzP6VKNBtvJ__i0S">
    <mxGraphModel dx="1590" dy="773" grid="1" gridSize="10" guides="1" tooltips="1" connect="1" arrows="1" fold="1" page="1" pageScale="1" pageWidth="3300" pageHeight="4681" math="0" shadow="0">
      <root>
        <mxCell id="0" />
        <mxCell id="1" parent="0" />
        <mxCell id="lzpOJtZnD-cY0IetTTwC-4" value="" style="edgeStyle=orthogonalEdgeStyle;rounded=0;orthogonalLoop=1;jettySize=auto;html=1;" edge="1" parent="1" source="lzpOJtZnD-cY0IetTTwC-1" target="lzpOJtZnD-cY0IetTTwC-2">
          <mxGeometry relative="1" as="geometry" />
        </mxCell>
        <mxCell id="lzpOJtZnD-cY0IetTTwC-1" value="开始" style="rounded=1;whiteSpace=wrap;html=1;" vertex="1" parent="1">
          <mxGeometry x="320" y="160" width="120" height="60" as="geometry" />
        </mxCell>
        <mxCell id="lzpOJtZnD-cY0IetTTwC-5" value="" style="edgeStyle=orthogonalEdgeStyle;rounded=0;orthogonalLoop=1;jettySize=auto;html=1;" edge="1" parent="1" source="lzpOJtZnD-cY0IetTTwC-2" target="lzpOJtZnD-cY0IetTTwC-3">
          <mxGeometry relative="1" as="geometry" />
        </mxCell>
        <mxCell id="lzpOJtZnD-cY0IetTTwC-6" value="否" style="edgeLabel;html=1;align=center;verticalAlign=middle;resizable=0;points=[];" vertex="1" connectable="0" parent="lzpOJtZnD-cY0IetTTwC-5">
          <mxGeometry x="-0.325" relative="1" as="geometry">
            <mxPoint y="1" as="offset" />
          </mxGeometry>
        </mxCell>
        <mxCell id="lzpOJtZnD-cY0IetTTwC-8" value="" style="edgeStyle=orthogonalEdgeStyle;rounded=0;orthogonalLoop=1;jettySize=auto;html=1;" edge="1" parent="1" source="lzpOJtZnD-cY0IetTTwC-2">
          <mxGeometry relative="1" as="geometry">
            <mxPoint x="380" y="400" as="targetPoint" />
          </mxGeometry>
        </mxCell>
        <mxCell id="lzpOJtZnD-cY0IetTTwC-2" value="优先队列里还有链表" style="rhombus;whiteSpace=wrap;html=1;" vertex="1" parent="1">
          <mxGeometry x="315" y="260" width="130" height="80" as="geometry" />
        </mxCell>
        <mxCell id="lzpOJtZnD-cY0IetTTwC-22" value="" style="edgeStyle=orthogonalEdgeStyle;rounded=0;orthogonalLoop=1;jettySize=auto;html=1;" edge="1" parent="1" source="lzpOJtZnD-cY0IetTTwC-3" target="lzpOJtZnD-cY0IetTTwC-21">
          <mxGeometry relative="1" as="geometry" />
        </mxCell>
        <mxCell id="lzpOJtZnD-cY0IetTTwC-3" value="返回0" style="rounded=1;whiteSpace=wrap;html=1;" vertex="1" parent="1">
          <mxGeometry x="520" y="270" width="120" height="60" as="geometry" />
        </mxCell>
        <mxCell id="lzpOJtZnD-cY0IetTTwC-9" value="是" style="text;html=1;align=center;verticalAlign=middle;resizable=0;points=[];autosize=1;strokeColor=none;fillColor=none;" vertex="1" parent="1">
          <mxGeometry x="360" y="345" width="40" height="30" as="geometry" />
        </mxCell>
        <mxCell id="lzpOJtZnD-cY0IetTTwC-13" value="" style="edgeStyle=orthogonalEdgeStyle;rounded=0;orthogonalLoop=1;jettySize=auto;html=1;" edge="1" parent="1" source="lzpOJtZnD-cY0IetTTwC-11" target="lzpOJtZnD-cY0IetTTwC-12">
          <mxGeometry relative="1" as="geometry" />
        </mxCell>
        <mxCell id="lzpOJtZnD-cY0IetTTwC-11" value="取出最早过期的链表" style="rounded=1;whiteSpace=wrap;html=1;" vertex="1" parent="1">
          <mxGeometry x="320" y="400" width="120" height="60" as="geometry" />
        </mxCell>
        <mxCell id="lzpOJtZnD-cY0IetTTwC-15" value="是" style="edgeStyle=orthogonalEdgeStyle;rounded=0;orthogonalLoop=1;jettySize=auto;html=1;" edge="1" parent="1" source="lzpOJtZnD-cY0IetTTwC-12" target="lzpOJtZnD-cY0IetTTwC-14">
          <mxGeometry relative="1" as="geometry" />
        </mxCell>
        <mxCell id="lzpOJtZnD-cY0IetTTwC-17" value="" style="edgeStyle=orthogonalEdgeStyle;rounded=0;orthogonalLoop=1;jettySize=auto;html=1;" edge="1" parent="1" source="lzpOJtZnD-cY0IetTTwC-12" target="lzpOJtZnD-cY0IetTTwC-16">
          <mxGeometry relative="1" as="geometry" />
        </mxCell>
        <mxCell id="lzpOJtZnD-cY0IetTTwC-18" value="否" style="edgeLabel;html=1;align=center;verticalAlign=middle;resizable=0;points=[];" vertex="1" connectable="0" parent="lzpOJtZnD-cY0IetTTwC-17">
          <mxGeometry x="-0.2286" relative="1" as="geometry">
            <mxPoint y="1" as="offset" />
          </mxGeometry>
        </mxCell>
        <mxCell id="lzpOJtZnD-cY0IetTTwC-12" value="链表是否有过期节点" style="rhombus;whiteSpace=wrap;html=1;" vertex="1" parent="1">
          <mxGeometry x="300" y="510" width="160" height="80" as="geometry" />
        </mxCell>
        <mxCell id="lzpOJtZnD-cY0IetTTwC-14" value="&lt;b&gt;执行listOnTimeout()&lt;/b&gt;" style="rounded=1;whiteSpace=wrap;html=1;fillColor=#ffe6cc;strokeColor=#d79b00;" vertex="1" parent="1">
          <mxGeometry x="320" y="650" width="120" height="60" as="geometry" />
        </mxCell>
        <mxCell id="lzpOJtZnD-cY0IetTTwC-23" value="" style="edgeStyle=orthogonalEdgeStyle;rounded=0;orthogonalLoop=1;jettySize=auto;html=1;" edge="1" parent="1" source="lzpOJtZnD-cY0IetTTwC-16" target="lzpOJtZnD-cY0IetTTwC-21">
          <mxGeometry relative="1" as="geometry" />
        </mxCell>
        <mxCell id="lzpOJtZnD-cY0IetTTwC-16" value="返回链表中最早的过期时间" style="rounded=1;whiteSpace=wrap;html=1;" vertex="1" parent="1">
          <mxGeometry x="530" y="520" width="120" height="60" as="geometry" />
        </mxCell>
        <mxCell id="lzpOJtZnD-cY0IetTTwC-19" value="" style="endArrow=classic;html=1;rounded=0;exitX=0;exitY=0.5;exitDx=0;exitDy=0;entryX=0;entryY=0.5;entryDx=0;entryDy=0;" edge="1" parent="1" source="lzpOJtZnD-cY0IetTTwC-14" target="lzpOJtZnD-cY0IetTTwC-2">
          <mxGeometry width="50" height="50" relative="1" as="geometry">
            <mxPoint x="120" y="680" as="sourcePoint" />
            <mxPoint x="170" y="630" as="targetPoint" />
            <Array as="points">
              <mxPoint x="240" y="680" />
              <mxPoint x="240" y="300" />
            </Array>
          </mxGeometry>
        </mxCell>
        <mxCell id="lzpOJtZnD-cY0IetTTwC-20" value="循环" style="edgeLabel;html=1;align=center;verticalAlign=middle;resizable=0;points=[];" vertex="1" connectable="0" parent="lzpOJtZnD-cY0IetTTwC-19">
          <mxGeometry x="0.0796" y="2" relative="1" as="geometry">
            <mxPoint as="offset" />
          </mxGeometry>
        </mxCell>
        <mxCell id="lzpOJtZnD-cY0IetTTwC-21" value="结束" style="rounded=1;whiteSpace=wrap;html=1;" vertex="1" parent="1">
          <mxGeometry x="710" y="520" width="120" height="60" as="geometry" />
        </mxCell>
        <mxCell id="lzpOJtZnD-cY0IetTTwC-24" value="" style="swimlane;startSize=0;" vertex="1" parent="1">
          <mxGeometry x="140" y="130" width="710" height="610" as="geometry" />
        </mxCell>
        <mxCell id="lzpOJtZnD-cY0IetTTwC-25" value="&lt;b&gt;&lt;font style=&quot;font-size: 15px;&quot;&gt;processTimers 方法&lt;/font&gt;&lt;/b&gt;" style="text;html=1;strokeColor=none;fillColor=none;align=center;verticalAlign=middle;whiteSpace=wrap;rounded=0;" vertex="1" parent="1">
          <mxGeometry x="410" y="80" width="150" height="30" as="geometry" />
        </mxCell>
        <mxCell id="lzpOJtZnD-cY0IetTTwC-30" value="" style="edgeStyle=orthogonalEdgeStyle;rounded=0;orthogonalLoop=1;jettySize=auto;html=1;" edge="1" parent="1" source="lzpOJtZnD-cY0IetTTwC-27" target="lzpOJtZnD-cY0IetTTwC-28">
          <mxGeometry relative="1" as="geometry" />
        </mxCell>
        <mxCell id="lzpOJtZnD-cY0IetTTwC-31" value="是" style="edgeLabel;html=1;align=center;verticalAlign=middle;resizable=0;points=[];" vertex="1" connectable="0" parent="lzpOJtZnD-cY0IetTTwC-30">
          <mxGeometry x="-0.52" y="-4" relative="1" as="geometry">
            <mxPoint as="offset" />
          </mxGeometry>
        </mxCell>
        <mxCell id="lzpOJtZnD-cY0IetTTwC-39" value="否" style="edgeStyle=orthogonalEdgeStyle;rounded=0;orthogonalLoop=1;jettySize=auto;html=1;" edge="1" parent="1" source="lzpOJtZnD-cY0IetTTwC-27" target="lzpOJtZnD-cY0IetTTwC-38">
          <mxGeometry relative="1" as="geometry" />
        </mxCell>
        <mxCell id="lzpOJtZnD-cY0IetTTwC-33" value="" style="edgeStyle=orthogonalEdgeStyle;rounded=0;orthogonalLoop=1;jettySize=auto;html=1;" edge="1" parent="1" source="lzpOJtZnD-cY0IetTTwC-28" target="lzpOJtZnD-cY0IetTTwC-32">
          <mxGeometry relative="1" as="geometry" />
        </mxCell>
        <mxCell id="lzpOJtZnD-cY0IetTTwC-28" value="取得链表第一个节点(最先过期的节点)" style="rounded=1;whiteSpace=wrap;html=1;" vertex="1" parent="1">
          <mxGeometry x="1250" y="360" width="120" height="60" as="geometry" />
        </mxCell>
        <mxCell id="lzpOJtZnD-cY0IetTTwC-35" value="否" style="edgeStyle=orthogonalEdgeStyle;rounded=0;orthogonalLoop=1;jettySize=auto;html=1;" edge="1" parent="1" source="lzpOJtZnD-cY0IetTTwC-32" target="lzpOJtZnD-cY0IetTTwC-34">
          <mxGeometry relative="1" as="geometry" />
        </mxCell>
        <mxCell id="lzpOJtZnD-cY0IetTTwC-37" value="是" style="edgeStyle=orthogonalEdgeStyle;rounded=0;orthogonalLoop=1;jettySize=auto;html=1;" edge="1" parent="1" source="lzpOJtZnD-cY0IetTTwC-32" target="lzpOJtZnD-cY0IetTTwC-36">
          <mxGeometry relative="1" as="geometry" />
        </mxCell>
        <mxCell id="lzpOJtZnD-cY0IetTTwC-32" value="是否过期了" style="rhombus;whiteSpace=wrap;html=1;" vertex="1" parent="1">
          <mxGeometry x="1250" y="460" width="120" height="80" as="geometry" />
        </mxCell>
        <mxCell id="lzpOJtZnD-cY0IetTTwC-53" value="" style="edgeStyle=orthogonalEdgeStyle;rounded=0;orthogonalLoop=1;jettySize=auto;html=1;" edge="1" parent="1" source="lzpOJtZnD-cY0IetTTwC-36" target="lzpOJtZnD-cY0IetTTwC-43">
          <mxGeometry relative="1" as="geometry" />
        </mxCell>
        <mxCell id="lzpOJtZnD-cY0IetTTwC-36" value="从链表移除该节点" style="rounded=1;whiteSpace=wrap;html=1;" vertex="1" parent="1">
          <mxGeometry x="1410" y="470" width="120" height="60" as="geometry" />
        </mxCell>
        <mxCell id="lzpOJtZnD-cY0IetTTwC-38" value="结束" style="rounded=1;whiteSpace=wrap;html=1;" vertex="1" parent="1">
          <mxGeometry x="940" y="590" width="120" height="60" as="geometry" />
        </mxCell>
        <mxCell id="lzpOJtZnD-cY0IetTTwC-42" value="" style="edgeStyle=orthogonalEdgeStyle;rounded=0;orthogonalLoop=1;jettySize=auto;html=1;" edge="1" parent="1" source="lzpOJtZnD-cY0IetTTwC-40" target="lzpOJtZnD-cY0IetTTwC-38">
          <mxGeometry relative="1" as="geometry" />
        </mxCell>
        <mxCell id="lzpOJtZnD-cY0IetTTwC-46" value="" style="edgeStyle=orthogonalEdgeStyle;rounded=0;orthogonalLoop=1;jettySize=auto;html=1;" edge="1" parent="1" source="lzpOJtZnD-cY0IetTTwC-43" target="lzpOJtZnD-cY0IetTTwC-45">
          <mxGeometry relative="1" as="geometry" />
        </mxCell>
        <mxCell id="lzpOJtZnD-cY0IetTTwC-43" value="&lt;b&gt;执行setTimeout的回调_onTimeout()&lt;/b&gt;" style="rounded=1;whiteSpace=wrap;html=1;fillColor=#ffe6cc;strokeColor=#d79b00;" vertex="1" parent="1">
          <mxGeometry x="1410" y="590" width="120" height="60" as="geometry" />
        </mxCell>
        <mxCell id="lzpOJtZnD-cY0IetTTwC-48" value="是" style="edgeStyle=orthogonalEdgeStyle;rounded=0;orthogonalLoop=1;jettySize=auto;html=1;" edge="1" parent="1" source="lzpOJtZnD-cY0IetTTwC-45" target="lzpOJtZnD-cY0IetTTwC-47">
          <mxGeometry relative="1" as="geometry" />
        </mxCell>
        <mxCell id="lzpOJtZnD-cY0IetTTwC-45" value="是否是setInterval()" style="rhombus;whiteSpace=wrap;html=1;" vertex="1" parent="1">
          <mxGeometry x="1420" y="690" width="100" height="80" as="geometry" />
        </mxCell>
        <mxCell id="lzpOJtZnD-cY0IetTTwC-51" value="" style="edgeStyle=orthogonalEdgeStyle;rounded=0;orthogonalLoop=1;jettySize=auto;html=1;" edge="1" parent="1" source="lzpOJtZnD-cY0IetTTwC-47" target="lzpOJtZnD-cY0IetTTwC-50">
          <mxGeometry relative="1" as="geometry" />
        </mxCell>
        <mxCell id="lzpOJtZnD-cY0IetTTwC-47" value="重新把定时器插入链表" style="rounded=1;whiteSpace=wrap;html=1;" vertex="1" parent="1">
          <mxGeometry x="1410" y="820" width="120" height="60" as="geometry" />
        </mxCell>
        <mxCell id="lzpOJtZnD-cY0IetTTwC-49" value="" style="endArrow=classic;html=1;rounded=0;exitX=1;exitY=0.5;exitDx=0;exitDy=0;entryX=1;entryY=0.5;entryDx=0;entryDy=0;" edge="1" parent="1" source="lzpOJtZnD-cY0IetTTwC-50" target="lzpOJtZnD-cY0IetTTwC-27">
          <mxGeometry width="50" height="50" relative="1" as="geometry">
            <mxPoint x="1390" y="940" as="sourcePoint" />
            <mxPoint x="1440" y="890" as="targetPoint" />
            <Array as="points">
              <mxPoint x="1580" y="960" />
              <mxPoint x="1580" y="280" />
            </Array>
          </mxGeometry>
        </mxCell>
        <mxCell id="lzpOJtZnD-cY0IetTTwC-52" value="循环" style="edgeLabel;html=1;align=center;verticalAlign=middle;resizable=0;points=[];" vertex="1" connectable="0" parent="lzpOJtZnD-cY0IetTTwC-49">
          <mxGeometry x="0.1753" y="3" relative="1" as="geometry">
            <mxPoint y="1" as="offset" />
          </mxGeometry>
        </mxCell>
        <mxCell id="lzpOJtZnD-cY0IetTTwC-50" value="一些后续处理" style="rounded=1;whiteSpace=wrap;html=1;" vertex="1" parent="1">
          <mxGeometry x="1410" y="930" width="120" height="60" as="geometry" />
        </mxCell>
        <mxCell id="lzpOJtZnD-cY0IetTTwC-54" value="" style="swimlane;startSize=0;" vertex="1" parent="1">
          <mxGeometry x="930" y="130" width="720" height="880" as="geometry" />
        </mxCell>
        <mxCell id="lzpOJtZnD-cY0IetTTwC-26" value="开始" style="rounded=1;whiteSpace=wrap;html=1;" vertex="1" parent="lzpOJtZnD-cY0IetTTwC-54">
          <mxGeometry x="320" y="20" width="120" height="60" as="geometry" />
        </mxCell>
        <mxCell id="lzpOJtZnD-cY0IetTTwC-27" value="链表中是否有Timeout节点" style="rhombus;whiteSpace=wrap;html=1;" vertex="1" parent="lzpOJtZnD-cY0IetTTwC-54">
          <mxGeometry x="325" y="110" width="110" height="80" as="geometry" />
        </mxCell>
        <mxCell id="lzpOJtZnD-cY0IetTTwC-29" value="" style="edgeStyle=orthogonalEdgeStyle;rounded=0;orthogonalLoop=1;jettySize=auto;html=1;" edge="1" parent="lzpOJtZnD-cY0IetTTwC-54" source="lzpOJtZnD-cY0IetTTwC-26" target="lzpOJtZnD-cY0IetTTwC-27">
          <mxGeometry relative="1" as="geometry" />
        </mxCell>
        <mxCell id="lzpOJtZnD-cY0IetTTwC-34" value="更新链表最近超时时间" style="rounded=1;whiteSpace=wrap;html=1;" vertex="1" parent="lzpOJtZnD-cY0IetTTwC-54">
          <mxGeometry x="170" y="340" width="120" height="60" as="geometry" />
        </mxCell>
        <mxCell id="lzpOJtZnD-cY0IetTTwC-40" value="重排列优先队列" style="rounded=1;whiteSpace=wrap;html=1;fillColor=#ffe6cc;strokeColor=#d79b00;" vertex="1" parent="lzpOJtZnD-cY0IetTTwC-54">
          <mxGeometry x="170" y="460" width="120" height="60" as="geometry" />
        </mxCell>
        <mxCell id="lzpOJtZnD-cY0IetTTwC-41" value="" style="edgeStyle=orthogonalEdgeStyle;rounded=0;orthogonalLoop=1;jettySize=auto;html=1;" edge="1" parent="lzpOJtZnD-cY0IetTTwC-54" source="lzpOJtZnD-cY0IetTTwC-34" target="lzpOJtZnD-cY0IetTTwC-40">
          <mxGeometry relative="1" as="geometry" />
        </mxCell>
        <mxCell id="lzpOJtZnD-cY0IetTTwC-55" value="" style="endArrow=classic;html=1;rounded=0;exitX=1;exitY=0.5;exitDx=0;exitDy=0;entryX=-0.004;entryY=0.627;entryDx=0;entryDy=0;entryPerimeter=0;dashed=1;" edge="1" parent="1" source="lzpOJtZnD-cY0IetTTwC-14" target="lzpOJtZnD-cY0IetTTwC-54">
          <mxGeometry width="50" height="50" relative="1" as="geometry">
            <mxPoint x="860" y="780" as="sourcePoint" />
            <mxPoint x="910" y="730" as="targetPoint" />
          </mxGeometry>
        </mxCell>
        <mxCell id="lzpOJtZnD-cY0IetTTwC-56" value="&lt;b&gt;&lt;font style=&quot;font-size: 15px;&quot;&gt;listOnTimeout 方法&lt;/font&gt;&lt;/b&gt;" style="text;html=1;strokeColor=none;fillColor=none;align=center;verticalAlign=middle;whiteSpace=wrap;rounded=0;" vertex="1" parent="1">
          <mxGeometry x="1235" y="80" width="150" height="30" as="geometry" />
        </mxCell>
      </root>
    </mxGraphModel>
  </diagram>
</mxfile>
